 <svg version="1.0" xmlns="http://www.w3.org/2000/svg" width="700.000000pt" height="525.000000pt" viewBox="10 0 645.000000 525.000000" preserveAspectRatio="xMidYMid meet">
<metadata>
Created by potrace 1.12, written by Peter Selinger 2001-2015
gold: #F5DDC5
silver: #E4E4E2
</metadata>
<g transform="translate(0.000000,525.000000) scale(0.100000,-0.100000)" fill="#AEE1CD" stroke="none">
<path d="M2342 5174 c-156 -41 -281 -179 -312 -343 -13 -72 -14 -4362 0 -4445
14 -85 59 -174 119 -234 55 -55 101 -83 190 -113 51 -18 100 -19 970 -19 849
0 920 2 971 18 176 57 296 192 320 364 6 36 10 975 10 2223 0 2345 3 2222 -54
2333 -54 107 -153 183 -281 217 -85 22 -1851 22 -1933 -1z m2063 -2569 l0
-1940 -1095 0 -1095 0 -3 1930 c-1 1062 0 1936 3 1943 3 10 228 12 1097 10
l1093 -3 0 -1940z m-994 -2098 c50 -33 83 -105 74 -162 -8 -58 -62 -117 -122
-135 -77 -23 -169 23 -193 96 -16 48 -8 129 17 162 46 63 159 83 224 39z"></path>
</g>
</svg>